<?xml version="1.0" standalone="no"?>
<!DOCTYPE svg PUBLIC "-//W3C//DTD SVG 20010904//EN"
 "http://www.w3.org/TR/2001/REC-SVG-20010904/DTD/svg10.dtd">
<svg version="1.0" xmlns="http://www.w3.org/2000/svg"
 width="16.000000pt" height="16.000000pt" viewBox="0 0 16.000000 16.000000"
 preserveAspectRatio="xMidYMid meet">
<metadata>
Created by potrace 1.11, written by Peter Selinger 2001-2013
</metadata>
<g transform="translate(0.000000,16.000000) scale(0.006154,-0.006154)"
fill="#000000" stroke="none">
<path d="M508 2434 l-28 -15 0 -437 c0 -363 2 -442 14 -458 14 -18 30 -19 283
-22 211 -2 272 0 286 10 42 31 29 153 -17 162 -11 3 -91 5 -176 4 -85 0 -162
1 -171 1 -13 1 -15 18 -16 110 l-1 108 111 0 c102 1 112 2 129 23 12 15 16 34
14 62 -7 64 -18 70 -143 69 l-109 -1 -1 110 -1 110 36 1 c21 0 102 0 182 0 80
0 150 3 156 7 35 23 46 111 18 150 -15 22 -18 22 -277 22 -213 -1 -267 -4
-289 -16z"/>
<path d="M1505 2438 c-11 -6 -23 -16 -27 -22 -4 -6 -8 -205 -8 -443 0 -432 0
-432 22 -453 20 -18 34 -20 192 -20 220 0 296 21 360 97 58 69 65 110 63 393
-3 287 -8 311 -81 380 -67 64 -126 78 -326 79 -115 1 -182 -3 -195 -11z m348
-183 c10 -4 26 -24 36 -44 15 -31 17 -63 16 -241 -1 -122 -7 -216 -13 -232
-16 -39 -60 -58 -144 -60 l-73 -2 -2 296 -2 297 42 3 c45 3 111 -5 140 -17z"/>
<path d="M1215 2040 c-94 -38 -61 -196 40 -192 46 2 72 16 90 52 19 37 19 54
0 95 -23 48 -77 67 -130 45z"/>
<path d="M1186 1661 c-47 -49 -35 -125 24 -156 38 -20 65 -19 101 2 60 35 59
141 0 173 -11 5 -37 10 -58 10 -30 0 -46 -7 -67 -29z"/>
<path d="M1721 1182 c-14 -2 -35 -11 -48 -19 l-23 -15 0 -448 0 -449 28 -21
c22 -18 37 -21 79 -18 78 7 93 25 93 110 0 44 5 74 13 81 57 53 46 59 132 -68
44 -64 84 -120 91 -125 20 -18 60 -14 96 8 61 38 69 90 24 147 -9 11 -48 63
-86 115 l-69 95 76 72 c87 83 94 107 45 155 -57 58 -76 51 -204 -72 l-113
-109 -3 263 c-2 199 -5 266 -15 274 -17 15 -86 29 -116 24z"/>
<path d="M145 1146 c-45 -20 -68 -50 -60 -78 4 -13 29 -93 57 -178 28 -85 51
-159 52 -165 3 -16 126 -385 148 -442 17 -46 24 -53 61 -67 37 -13 59 -14 139
-7 9 0 28 11 42 24 26 22 28 29 73 240 9 43 19 74 23 70 4 -4 19 -66 34 -138
16 -72 35 -142 43 -156 20 -34 72 -50 141 -44 99 9 92 -5 240 448 72 222 132
416 132 429 0 41 -61 78 -129 78 -51 0 -62 -15 -98 -140 -17 -58 -59 -202 -94
-320 -59 -202 -75 -249 -76 -218 0 12 -72 317 -94 400 -13 49 -54 72 -117 65
-24 -3 -53 -13 -63 -23 -12 -13 -33 -85 -64 -219 -25 -110 -49 -209 -52 -220
-4 -12 -43 104 -105 315 -59 199 -106 340 -116 348 -21 16 -79 15 -117 -2z"/>
<path d="M1383 1113 c-56 -29 -69 -83 -30 -128 59 -69 187 -33 187 52 0 33
-37 82 -64 84 -6 1 -23 2 -39 3 -15 2 -39 -3 -54 -11z"/>
<path d="M2373 1123 c-33 -6 -73 -52 -73 -84 0 -41 38 -79 87 -88 97 -18 164
82 97 144 -15 14 -32 25 -38 26 -6 0 -20 2 -31 3 -11 2 -30 1 -42 -1z"/>
<path d="M1374 821 c-12 -5 -25 -15 -29 -22 -10 -14 -10 -517 -1 -545 8 -26
46 -44 92 -44 38 0 89 22 96 42 3 7 5 129 6 270 0 302 1 299 -89 304 -30 2
-64 0 -75 -5z"/>
<path d="M2344 821 c-12 -5 -25 -14 -28 -19 -5 -9 -8 -191 -7 -444 l1 -117 30
-16 c54 -28 148 -11 163 29 3 8 6 132 6 274 1 247 0 260 -19 277 -23 21 -112
30 -146 16z"/>
</g>
</svg>
